<?xml version="1.0" standalone="no"?>
<!DOCTYPE svg PUBLIC "-//W3C//DTD SVG 20010904//EN"
 "http://www.w3.org/TR/2001/REC-SVG-20010904/DTD/svg10.dtd">
<svg version="1.0" xmlns="http://www.w3.org/2000/svg"
 width="256.000000pt" height="256.000000pt" viewBox="0 0 256.000000 256.000000"
 preserveAspectRatio="xMidYMid meet">
<metadata>
Created by potrace 1.14, written by Peter Selinger 2001-2017
</metadata>
<g transform="translate(0.000000,256.000000) scale(0.100000,-0.100000)"
fill="#000000" stroke="none">
<path d="M1169 2467 c-95 -27 -184 -96 -234 -182 -102 -174 -49 -386 129 -509
18 -12 18 -41 20 -746 l1 -733 -32 -33 c-44 -43 -46 -98 -5 -142 48 -52 105
-54 159 -8 23 20 28 32 28 69 0 48 -21 97 -41 97 -10 0 -13 149 -13 718 l0
718 99 0 100 0 0 -556 0 -557 -24 -22 c-31 -30 -39 -62 -26 -111 31 -115 210
-92 210 28 0 38 -23 87 -44 95 -14 6 -16 77 -16 592 0 335 4 585 9 585 5 0 32
21 60 46 91 82 132 180 126 303 -6 141 -88 260 -223 324 -52 24 -79 30 -150
33 -52 2 -105 -1 -133 -9z m243 -115 c185 -91 219 -340 63 -467 -193 -158
-486 -31 -486 211 0 126 67 218 196 271 49 20 172 12 227 -15z m71 -1800 c27
-24 22 -76 -9 -101 -15 -12 -34 -21 -44 -21 -30 0 -70 39 -70 69 0 68 69 99
123 53z m-282 -342 c18 -73 -74 -122 -120 -64 -35 45 -27 82 24 108 27 14 32
14 59 -2 17 -10 33 -29 37 -42z"/>
</g>
</svg>
