<?xml version="1.0" encoding="utf-8"?>
<!-- Generator: Adobe Illustrator 23.1.1, SVG Export Plug-In . SVG Version: 6.00 Build 0)  -->
<svg version="1.1" id="Layer_1" xmlns="http://www.w3.org/2000/svg" xmlns:xlink="http://www.w3.org/1999/xlink" x="0px" y="0px"
	 viewBox="0 0 51 50" style="enable-background:new 0 0 51 50;" xml:space="preserve">
<style type="text/css">
	.st0{fill-rule:evenodd;clip-rule:evenodd;fill:#D7DDE6;}
</style>
<g transform="translate(.978)">
	<circle class="st0" cx="9.6" cy="10" r="10"/>
	<path class="st0" d="M1.4,50h46.2c1.1,0,2-0.9,2-2c0-0.3-0.1-0.5-0.2-0.8L38.9,22.1c-0.4-1-1.6-1.5-2.6-1.1
		c-0.3,0.1-0.6,0.3-0.8,0.6L21.4,39.1c-0.7,0.9-2,1-2.8,0.3c0,0-0.1-0.1-0.1-0.1l-5.9-5.7c-0.8-0.8-2.1-0.7-2.8,0.1
		c-0.1,0.1-0.1,0.1-0.2,0.2l-9.7,13.1c-0.6,0.8-0.5,2.1,0.4,2.7C0.6,49.9,1,50,1.4,50z"/>
</g>
</svg>
